# Blender v2.90.1 OBJ File: 'car.blend'
# www.blender.org
mtllib car-BackLightsRed.mtl.mtl
o BackLightsRed_Cube.008
v -2.528651 0.933154 -4.537863
v -2.528651 1.310248 -4.579391
v -2.528651 0.933154 -4.658260
v -2.528651 1.310248 -4.725717
v -2.444237 1.188836 -4.579391
v -2.214991 1.414493 -4.579391
v -2.444237 1.188836 -4.701354
v -2.214991 1.414493 -4.743648
v -2.214685 1.439983 -4.646292
v -2.161771 1.555882 -4.646292
v -2.214685 1.439983 -4.749495
v -2.161771 1.555882 -4.779245
v -2.528381 1.342646 -4.646292
v -2.528381 1.555882 -4.646292
v -2.528381 1.342646 -4.730785
v -2.528381 1.555882 -4.779245
v 2.528654 0.933154 -4.537863
v 2.528654 1.310248 -4.579391
v 2.528654 0.933154 -4.658261
v 2.528654 1.310248 -4.725717
v 2.444240 1.188836 -4.579391
v 2.214994 1.414493 -4.579391
v 2.444240 1.188836 -4.701354
v 2.214994 1.414493 -4.743648
v 2.214688 1.439983 -4.646292
v 2.161774 1.555882 -4.646292
v 2.214688 1.439983 -4.749496
v 2.161774 1.555882 -4.779245
v 2.528384 1.342646 -4.646292
v 2.528384 1.555882 -4.646292
v 2.528384 1.342646 -4.730785
v 2.528384 1.555882 -4.779245
vt 0.375000 0.000000
vt 0.625000 0.000000
vt 0.625000 0.250000
vt 0.375000 0.250000
vt 0.625000 0.500000
vt 0.375000 0.500000
vt 0.625000 0.750000
vt 0.375000 0.750000
vt 0.625000 1.000000
vt 0.375000 1.000000
vt 0.125000 0.500000
vt 0.125000 0.750000
vt 0.875000 0.500000
vt 0.875000 0.750000
vt 0.375000 0.000000
vt 0.625000 0.000000
vt 0.625000 0.250000
vt 0.375000 0.250000
vt 0.625000 0.500000
vt 0.375000 0.500000
vt 0.625000 0.750000
vt 0.375000 0.750000
vt 0.625000 1.000000
vt 0.375000 1.000000
vt 0.125000 0.500000
vt 0.125000 0.750000
vt 0.875000 0.500000
vt 0.875000 0.750000
vt 0.375000 0.000000
vt 0.625000 0.000000
vt 0.625000 0.250000
vt 0.375000 0.250000
vt 0.625000 0.500000
vt 0.375000 0.500000
vt 0.625000 0.750000
vt 0.375000 0.750000
vt 0.625000 1.000000
vt 0.375000 1.000000
vt 0.125000 0.500000
vt 0.125000 0.750000
vt 0.875000 0.500000
vt 0.875000 0.750000
vt 0.375000 0.000000
vt 0.625000 0.000000
vt 0.625000 0.250000
vt 0.375000 0.250000
vt 0.625000 0.500000
vt 0.375000 0.500000
vt 0.625000 0.750000
vt 0.375000 0.750000
vt 0.625000 1.000000
vt 0.375000 1.000000
vt 0.125000 0.500000
vt 0.125000 0.750000
vt 0.875000 0.500000
vt 0.875000 0.750000
vn -1.0000 -0.0000 0.0000
vn 0.0170 -0.1854 -0.9825
vn 0.7015 -0.7127 0.0000
vn 0.0639 0.0444 0.9970
vn 0.9496 -0.3135 0.0000
vn -0.3154 0.9490 0.0000
vn -0.9097 0.4153 0.0000
vn -0.0065 0.2322 0.9727
vn 1.0000 0.0000 0.0000
vn 0.0000 0.0000 -1.0000
vn -0.2964 0.9551 0.0000
vn 0.0000 -1.0000 0.0000
vn 0.0170 0.1854 0.9825
vn 0.7015 0.7127 0.0000
vn 0.0639 -0.0444 -0.9970
vn 0.9496 0.3135 0.0000
vn -0.3154 -0.9490 0.0000
vn -0.9097 -0.4153 0.0000
vn -0.0065 -0.2322 -0.9727
vn 0.0000 0.0000 1.0000
vn -0.2964 -0.9551 0.0000
vn 0.0000 1.0000 0.0000
usemtl Material.006
s off
f 1/1/1 2/2/1 4/3/1 3/4/1
f 3/4/2 4/3/2 8/5/2 7/6/2
f 7/6/3 8/5/3 6/7/3 5/8/3
f 5/8/4 6/7/4 2/9/4 1/10/4
f 3/11/5 7/6/5 5/8/5 1/12/5
f 8/5/6 4/13/6 2/14/6 6/7/6
f 9/15/7 10/16/7 12/17/7 11/18/7
f 11/18/8 12/17/8 16/19/8 15/20/8
f 15/20/9 16/19/9 14/21/9 13/22/9
f 13/22/10 14/21/10 10/23/10 9/24/10
f 11/25/11 15/20/11 13/22/11 9/26/11
f 16/19/12 12/27/12 10/28/12 14/21/12
f 17/29/1 18/30/1 20/31/1 19/32/1
f 19/32/13 20/31/13 24/33/13 23/34/13
f 23/34/14 24/33/14 22/35/14 21/36/14
f 21/36/15 22/35/15 18/37/15 17/38/15
f 19/39/16 23/34/16 21/36/16 17/40/16
f 24/33/17 20/41/17 18/42/17 22/35/17
f 25/43/18 26/44/18 28/45/18 27/46/18
f 27/46/19 28/45/19 32/47/19 31/48/19
f 31/48/9 32/47/9 30/49/9 29/50/9
f 29/50/20 30/49/20 26/51/20 25/52/20
f 27/53/21 31/48/21 29/50/21 25/54/21
f 32/47/22 28/55/22 26/56/22 30/49/22
