# Blender v2.90.1 OBJ File: 'car.blend'
# www.blender.org
mtllib car-body.mtl
o Body_Cube.001
v -2.560079 1.575147 -4.762137
v 2.560079 1.575147 -4.762137
v -2.163041 1.966378 -4.762137
v 2.163041 1.966378 -4.762137
v -2.163041 2.678419 0.846326
v 0.000000 1.966378 -4.762137
v 2.163041 2.678419 0.846326
v 0.000000 2.678419 0.846326
v -2.223875 -0.068646 3.914558
v -2.223875 -0.068646 -3.865123
v -2.560079 0.062629 -4.512206
v 2.223875 -0.068646 3.914558
v 2.223875 -0.068646 -3.865123
v 2.560079 0.062629 -4.512206
v -2.191793 0.856280 4.732255
v -2.017920 1.143857 4.762137
v -2.560079 1.033000 4.215669
v 2.191793 0.856280 4.732255
v 2.560079 1.033000 4.215669
v 2.017920 1.143857 4.762137
v -2.163041 1.437019 4.299870
v -1.912866 1.247375 4.762137
v 1.912866 1.247375 4.762137
v 2.163041 1.437019 4.299870
v 0.000000 1.247375 4.762137
v 0.000000 1.435838 4.303465
v -2.191793 0.206349 4.597125
v -2.433200 -0.095269 4.030397
v 2.191793 0.206349 4.597125
v 2.433200 -0.095269 4.030397
vt 0.394925 0.014678
vt 0.625000 0.014344
vt 0.625000 0.250000
vt 0.394965 0.250000
vt 0.750000 0.625000
vt 0.875000 0.625000
vt 0.875000 0.735244
vt 0.750000 0.735358
vt 0.625000 0.500000
vt 0.394965 0.500000
vt 0.625000 0.979697
vt 0.625000 0.770303
vt 0.625000 0.770909
vt 0.625000 0.875000
vt 0.625000 0.979091
vt 0.625000 0.735656
vt 0.625000 0.500000
vt 0.625000 0.625000
vt 0.625000 0.735244
vt 0.625000 0.250000
vt 0.625000 0.375000
vt 0.394925 0.735322
vt 0.439332 0.767982
vt 0.591378 0.767982
vt 0.591378 0.982018
vt 0.439332 0.982018
vt 0.141416 0.732687
vt 0.358584 0.732687
vt 0.368805 0.739447
vt 0.131195 0.739447
vt 0.750000 0.500000
vt 0.875000 0.500000
vt 0.358584 0.517313
vt 0.387645 0.735458
vt 0.141416 0.517313
vt 0.125000 0.500000
vt 0.375000 0.500000
vt 0.131195 0.735458
vt 0.625000 0.977447
vt 0.625000 1.000000
vt 0.625000 1.000000
vt 0.625000 0.875000
vt 0.625000 1.000000
vt 0.625000 0.750000
vt 0.405710 0.993805
vt 0.405710 0.756195
vt 0.405710 1.000000
vt 0.625000 0.014756
vt 0.625000 0.125000
vn -0.9988 -0.0479 0.0053
vn -0.0000 0.9411 0.3383
vn 0.0000 -0.1630 -0.9866
vn 0.0000 0.0000 1.0000
vn 0.9183 0.3953 0.0235
vn 0.0000 0.0000 -1.0000
vn 0.9988 -0.0479 0.0053
vn 0.0000 -0.2036 0.9791
vn -0.0000 -0.9746 -0.2240
vn 0.0000 0.9920 -0.1259
vn 0.1808 -0.9835 -0.0081
vn 0.0000 -0.9800 -0.1988
vn -0.1808 -0.9835 -0.0081
vn 0.0000 -1.0000 0.0000
vn -0.6982 0.3577 0.6201
vn 0.6982 0.3577 0.6201
vn 0.0000 -0.1034 0.9946
vn -0.0001 0.9251 0.3798
vn 0.6396 0.5424 0.5448
vn -0.6396 0.5424 0.5448
vn 0.0001 0.9251 0.3798
vn 0.0000 -0.8828 0.4698
vn -0.8540 -0.1507 0.4980
vn 0.8540 -0.1507 0.4980
vn -0.9183 0.3953 0.0235
usemtl None
s off
f 28/1/1 17/2/1 1/3/1 11/4/1
f 8/5/2 5/6/2 21/7/2 26/8/2
f 11/4/3 1/3/3 2/9/3 14/10/3
f 16/11/4 20/12/4 23/13/4 25/14/4 22/15/4
f 19/16/5 2/9/5 4/17/5 7/18/5 24/19/5
f 7/18/2 8/5/2 26/8/2 24/19/2
f 2/9/6 1/3/6 3/20/6 6/21/6 4/17/6
f 14/10/7 2/9/7 19/16/7 30/22/7
f 29/23/8 18/24/8 15/25/8 27/26/8
f 9/27/9 12/28/9 30/29/9 28/30/9
f 4/17/10 6/31/10 8/5/10 7/18/10
f 6/31/10 3/32/10 5/6/10 8/5/10
f 12/28/11 13/33/11 14/10/11 30/34/11
f 13/33/12 10/35/12 11/36/12 14/37/12
f 10/35/13 9/27/13 28/38/13 11/36/13
f 10/35/14 13/33/14 12/28/14 9/27/14
f 15/39/15 16/40/15 17/41/15
f 18/24/16 19/16/16 20/12/16
f 20/12/17 16/11/17 15/25/17 18/24/17
f 26/42/18 21/43/18 22/15/18 25/14/18
f 19/16/19 24/19/19 23/13/19 20/12/19
f 21/43/20 17/41/20 16/11/20 22/15/20
f 24/44/21 26/42/21 25/14/21 23/13/21
f 29/23/22 27/26/22 28/45/22 30/46/22
f 27/26/23 15/25/23 17/41/23 28/47/23
f 30/22/24 19/16/24 18/24/24 29/23/24
f 1/3/25 17/2/25 21/48/25 5/49/25 3/20/25
