# Blender v2.90.1 OBJ File: 'car.blend'
# www.blender.org
mtllib car-frontOrange.mtl
o Front_Orange_Cube.014
v -2.080600 0.869601 4.593859
v -1.917329 1.139379 4.629257
v -2.315651 0.978852 4.262549
v -2.438129 1.034665 4.111311
v -2.195001 0.883773 4.719884
v -2.189521 0.869601 4.725211
v -2.048429 1.126821 4.751664
v -2.026267 1.139379 4.760631
v -2.419603 0.988302 4.403609
v -2.424572 0.978852 4.393901
v -2.514341 1.031759 4.287305
v -2.547068 1.034665 4.242686
v 2.080486 0.869601 4.592711
v 1.917025 1.139379 4.627224
v 2.317328 0.978852 4.262680
v 2.440624 1.034665 4.112108
v 2.194202 0.883773 4.719355
v 2.188693 0.869601 4.724652
v 2.047459 1.126821 4.750340
v 2.025250 1.139379 4.759186
v 2.420514 0.988302 4.404301
v 2.425536 0.978852 4.394621
v 2.515881 1.031759 4.288512
v 2.548849 1.034665 4.244071
vt 0.413365 0.765348
vt 0.385846 0.991992
vt 0.614510 0.993614
vt 0.594513 0.760627
vt 0.375000 0.250000
vt 0.375000 0.500000
vt 0.625000 0.500000
vt 0.625000 0.250000
vt 0.625000 0.741610
vt 0.875000 0.741610
vt 0.875000 0.500000
vt 0.375000 0.008430
vt 0.625000 0.008390
vt 0.375000 0.741571
vt 0.380817 1.000000
vt 0.625000 1.000000
vt 0.375000 0.993869
vt 0.375000 0.750000
vt 0.625000 0.750000
vt 0.625000 0.998022
vt 0.125000 0.500000
vt 0.125000 0.741570
vt 0.413365 0.765348
vt 0.385846 0.991992
vt 0.614510 0.993614
vt 0.594513 0.760627
vt 0.375000 0.250000
vt 0.375000 0.500000
vt 0.625000 0.500000
vt 0.625000 0.250000
vt 0.625000 0.741610
vt 0.875000 0.741610
vt 0.875000 0.500000
vt 0.375000 0.008430
vt 0.625000 0.008390
vt 0.375000 0.741571
vt 0.380817 1.000000
vt 0.625000 1.000000
vt 0.375000 0.993869
vt 0.375000 0.750000
vt 0.625000 0.750000
vt 0.625000 0.998022
vt 0.125000 0.500000
vt 0.125000 0.741570
vn -0.7091 0.3145 0.6311
vn 0.7085 -0.3137 -0.6322
vn -0.1091 0.9899 -0.0905
vn 0.6746 -0.4817 0.5594
vn -0.2161 -0.9598 -0.1792
vn -0.4467 0.1544 0.8813
vn -0.7955 -0.1912 0.5750
vn -0.8278 -0.1196 0.5481
vn -0.5932 0.6594 0.4618
vn -0.2065 -0.9634 -0.1712
vn -0.7057 -0.3145 -0.6349
vn 0.7050 0.3137 0.6360
vn -0.1096 -0.9899 0.0899
vn 0.6776 0.4817 -0.5557
vn -0.2171 0.9598 0.1780
vn -0.4419 -0.1544 -0.8837
vn -0.7924 0.1912 -0.5793
vn -0.8248 0.1195 -0.5526
vn -0.5907 -0.6594 -0.4650
vn -0.2074 0.9634 0.1701
usemtl Material.005
s off
f 9/1/1 5/2/1 7/3/1 11/4/1
f 1/5/2 3/6/2 4/7/2 2/8/2
f 4/7/3 12/9/3 8/10/3 2/11/3
f 6/12/4 1/5/4 2/8/4 8/13/4
f 3/6/5 10/14/5 12/9/5 4/7/5
f 5/2/6 6/15/6 8/16/6 7/3/6
f 11/4/7 12/9/7 10/14/7 9/1/7
f 6/17/8 5/2/8 9/1/8 10/18/8
f 12/19/9 11/4/9 7/3/9 8/20/9
f 1/21/10 6/22/10 10/14/10 3/6/10
f 21/23/11 17/24/11 19/25/11 23/26/11
f 13/27/12 15/28/12 16/29/12 14/30/12
f 16/29/13 24/31/13 20/32/13 14/33/13
f 18/34/14 13/27/14 14/30/14 20/35/14
f 15/28/15 22/36/15 24/31/15 16/29/15
f 17/24/16 18/37/16 20/38/16 19/25/16
f 23/26/17 24/31/17 22/36/17 21/23/17
f 18/39/18 17/24/18 21/23/18 22/40/18
f 24/41/19 23/26/19 19/25/19 20/42/19
f 13/43/20 18/44/20 22/36/20 15/28/20
